<svg id="visual" viewBox="0 0 960 540" width="960" height="540" xmlns="http://www.w3.org/2000/svg" xmlns:xlink="http://www.w3.org/1999/xlink" version="1.1"><g transform="translate(32.891135054317715 27.01857560052835)"><path d="M185.7 -267.8C223.1 -189.9 223.7 -114.7 274.3 -19.9C324.9 74.9 425.5 189.3 414.4 268.1C403.3 346.9 280.5 390 173.5 392.5C66.5 395 -24.7 356.8 -131.3 330.9C-237.8 305 -359.7 291.5 -423.5 223.8C-487.4 156 -493.4 34 -464.3 -73.4C-435.3 -180.7 -371.3 -273.5 -288.1 -343.3C-204.8 -413.1 -102.4 -460.1 -14.1 -443.2C74.1 -426.4 148.3 -345.7 185.7 -267.8" fill="#FFFFFF"></path></g></svg>